# xmcd CD database file
#
# Track frame offsets:
#	150
#	18745
#	44382
#	69970
#	95975
#	125437
#	151852
#	174885
#	204787
#
# Disc length: 2923 seconds
#
# Revision: 0
# Processed by: cddbd v1.5.2PL0 Copyright (c) Steve Scherf et al.
# Submitted via: CDex 1.70beta2
#
DISCID=6e0b6909
DTITLE=Ron Reid's Sunsteel - Calypsoldier
DYEAR=1900
DGENRE=Jazz
TTITLE0=Savannah Dance
TTITLE1=In The Eye Of The Beholder
TTITLE2=Pan In Yuh Life
TTITLE3=Ethel
TTITLE4=Dis J'Ouvert
TTITLE5=Margie
TTITLE6=Nothing Serious
TTITLE7=Mastife
TTITLE8=I Like To Beat Pan
EXTD=
EXTT0=
EXTT1=
EXTT2=
EXTT3=
EXTT4=
EXTT5=
EXTT6=
EXTT7=
EXTT8=
PLAYORDER=
